<?xml version="1.0" standalone="no"?>
<!DOCTYPE svg PUBLIC "-//W3C//DTD SVG 20010904//EN"
 "http://www.w3.org/TR/2001/REC-SVG-20010904/DTD/svg10.dtd">
<svg version="1.0" xmlns="http://www.w3.org/2000/svg"
 width="1472.000000pt" height="1472.000000pt" viewBox="0 0 1472.000000 1472.000000"
 preserveAspectRatio="xMidYMid meet">
<metadata>
Created by potrace 1.11, written by Peter Selinger 2001-2013
</metadata>
<g transform="translate(0.000000,1472.000000) scale(0.100000,-0.100000)"
fill="#000000" stroke="none">
<path d="M2457 14638 c-9 -5 -12 -1714 -11 -7320 l0 -7313 2680 0 c2393 0
2802 3 2989 20 28 2 82 7 120 10 39 3 84 7 100 9 17 2 59 7 95 10 36 4 79 9
95 12 29 4 54 7 140 19 22 3 63 10 90 15 28 5 64 12 80 15 17 3 40 7 51 9 12
2 37 7 55 10 37 6 51 9 118 25 25 5 49 8 53 5 4 -3 8 0 8 6 0 7 7 10 15 7 8
-4 17 -2 20 4 4 5 11 7 16 4 5 -4 15 -3 21 1 7 5 19 9 28 10 22 3 48 10 115
30 33 10 63 17 66 16 6 -1 328 102 359 115 8 3 17 7 20 8 3 1 12 4 20 7 26 10
55 19 58 18 1 0 16 7 32 15 17 9 30 12 30 8 0 -5 4 -3 8 3 4 6 45 25 92 44 47
19 100 42 118 52 17 10 32 14 32 10 0 -4 4 -2 8 3 4 6 61 37 127 69 66 33 122
62 125 65 3 3 21 14 40 24 60 32 95 52 100 57 3 3 34 23 70 44 36 22 67 42 70
45 3 4 25 19 50 35 49 32 215 156 269 202 144 122 362 341 436 439 36 48 56
73 73 91 7 8 11 14 8 14 -3 0 2 8 12 18 9 10 24 29 32 42 8 12 21 28 28 36 6
7 12 15 12 18 0 3 23 39 50 80 28 41 50 79 50 84 0 6 4 12 8 14 9 4 134 229
137 248 0 3 15 34 33 70 18 36 32 70 32 77 0 7 5 13 12 13 6 0 9 2 6 5 -3 3 8
38 24 78 29 70 96 257 103 287 1 8 11 41 20 74 9 32 18 64 19 70 1 6 5 17 10
24 4 7 5 16 2 19 -3 3 -1 13 3 22 5 9 11 30 14 46 8 40 16 81 28 133 9 41 15
73 24 137 2 17 6 41 9 54 9 39 20 134 19 164 0 15 2 27 6 27 3 0 7 17 8 38 1
20 4 60 6 87 21 222 27 691 13 930 -13 206 -16 249 -32 338 -2 15 -6 52 -8 82
-2 29 -7 58 -10 64 -4 6 -8 28 -10 49 -1 21 -6 44 -10 51 -5 7 -6 14 -3 17 2
2 -2 30 -10 62 -8 31 -16 66 -17 77 -2 11 -4 20 -5 20 -3 0 -6 16 -16 64 -3
19 -8 37 -10 41 -2 3 -6 18 -9 33 -2 15 -9 41 -15 59 -76 239 -102 306 -199
505 -58 122 -202 366 -232 393 -3 3 -24 30 -46 60 -23 30 -51 65 -63 77 -12
12 -21 25 -21 28 0 15 -290 291 -351 332 -13 10 -33 25 -43 35 -11 10 -38 30
-60 45 -23 15 -43 30 -46 34 -3 3 -48 32 -100 64 -52 33 -97 62 -100 65 -3 3
-18 12 -35 20 -16 8 -32 17 -35 20 -3 3 -34 21 -70 39 -36 19 -90 47 -120 62
-30 16 -60 29 -67 29 -7 0 -13 4 -13 9 0 5 -13 12 -30 16 -16 4 -30 11 -30 16
0 5 -6 9 -14 9 -7 0 -40 12 -72 26 -60 26 -105 46 -114 49 -13 5 -47 18 -65
25 -11 5 -49 19 -85 31 -36 13 -68 27 -71 32 -3 5 -9 8 -13 6 -6 -2 -153 43
-226 69 -8 3 -19 6 -25 8 -5 1 -44 12 -85 24 -41 12 -83 23 -93 25 -9 2 -21 6
-25 9 -5 3 -19 7 -33 10 -13 3 -39 9 -56 15 -18 5 -33 7 -33 4 0 -3 -7 0 -15
7 -8 6 -18 9 -23 6 -5 -3 -17 0 -27 7 -17 13 -13 16 75 42 8 3 43 16 75 30 17
6 57 23 90 35 33 13 63 29 67 34 4 6 8 8 8 4 0 -17 318 140 474 234 90 54 253
163 266 178 3 3 30 24 60 46 30 23 75 59 99 80 57 50 231 222 231 228 0 3 16
21 35 40 19 20 35 37 35 40 0 2 28 42 63 89 68 92 82 111 100 144 7 11 25 44
41 71 16 28 28 54 26 58 -1 4 2 10 7 13 14 10 87 156 137 276 26 61 51 119 56
130 23 49 98 282 115 355 1 8 11 44 20 79 9 35 19 78 21 95 10 58 12 71 14 71
3 0 13 59 25 145 1 14 6 39 9 55 3 17 8 62 11 100 4 39 9 90 11 115 3 25 6 92
7 150 2 58 6 111 10 118 5 6 4 12 -2 12 -5 0 -8 10 -5 23 11 57 -5 531 -20
555 -3 6 -2 13 4 17 6 4 7 11 4 17 -4 6 -8 29 -10 52 -14 153 -24 231 -44 346
-7 36 -13 76 -15 90 -2 14 -11 57 -20 95 -9 39 -19 79 -21 90 -2 11 -20 76
-40 145 -20 69 -38 135 -41 148 -3 12 -9 25 -14 28 -5 3 -9 15 -9 28 0 12 -4
26 -8 31 -4 6 -14 28 -21 50 -7 22 -23 63 -36 90 -24 50 -46 106 -47 115 0 3
-4 10 -8 15 -5 6 -34 60 -65 120 -31 61 -60 112 -65 115 -4 3 -17 25 -30 49
-12 25 -27 50 -34 56 -6 6 -20 28 -31 48 -11 20 -23 37 -27 37 -5 0 -8 5 -8
11 0 6 -6 16 -12 23 -7 8 -20 24 -28 36 -8 12 -22 30 -30 40 -8 9 -26 32 -40
51 -34 45 -141 168 -186 213 -54 54 -174 165 -213 196 -24 19 -48 40 -55 45
-22 20 -123 93 -186 136 -36 24 -66 47 -68 52 -2 4 -8 7 -14 7 -5 0 -29 14
-53 30 -24 17 -47 30 -50 30 -4 0 -19 8 -33 19 -43 29 -289 154 -387 195 -49
21 -103 44 -120 52 -16 7 -50 20 -75 29 -99 35 -286 97 -301 100 -9 2 -47 12
-85 23 -89 26 -125 35 -144 38 -8 1 -44 9 -80 19 -36 9 -76 19 -90 21 -14 3
-57 11 -97 19 -39 8 -88 18 -109 21 -20 3 -46 8 -58 10 -11 2 -37 7 -56 9 -19
3 -45 8 -57 10 -19 5 -80 12 -153 20 -14 2 -25 4 -25 5 0 1 -13 3 -30 5 -16 2
-50 6 -75 9 -54 7 -141 16 -190 21 -19 2 -35 4 -35 5 0 0 -36 3 -80 6 -113 7
-180 12 -180 14 0 2 -187 11 -303 14 -62 2 -115 6 -119 9 -3 4 -12 2 -20 -4
-7 -6 -13 -8 -13 -3 0 10 -4625 12 -4643 2z"/>
</g>
</svg>
